# xmcd
#
# Track frame offsets:
#	150
#	18119
#	36436
#	51344
#	63850
#	82039
#	99024
#	114101
#	131799
#	148371
#	165696
#	180252
#	198049
#	214446
#	230483
#	244881
#	258627
#	277306
#	289598
#
# Disc length: 4069 seconds
#
# Revision: 2
# Processed by: cddbd v1.5.2PL0 Copyright (c) Steve Scherf et al.
# Submitted via: audiograbber 1.83.01
#
DISCID=190fe313
DTITLE=Various Artist - Multi Hott Country # 151
DYEAR=2008
DGENRE=Country
TTITLE0=Rascal Flatts - Bob That Head
TTITLE1=Sugarland - Already Gone
TTITLE2=Dierks Bentley - Feel That Fire
TTITLE3=Gord Bamford - Postcard From Pasadena
TTITLE4=Alan Jackson - Country Boy
TTITLE5=Trace Adkins - Muddy Water
TTITLE6=Carll Hayes,  - It's A Shame
TTITLE7=Jason Blaine - Good Day To Get Gone
TTITLE8=Tim Mcgraw - Let It Go
TTITLE9=Billy Currington - Dont
TTITLE10=Wilkinsons - When Im Old (Short Version)
TTITLE11=Brad Paisley Ft Keith Urban - Start A Band
TTITLE12=Brooks and Dunn - Cowgirls Dont Cry
TTITLE13=Josh Turner - Everything Is Fine
TTITLE14=Willie Mack - Headlights And Tailpipes
TTITLE15=Randy Houser - Anything Goes
TTITLE16=Ridley Bent - Buckles And Boots
TTITLE17=Jessie Farrell - I Guess
TTITLE18=Kenny Rogers - The Vow Go Unbroken
EXTD=
EXTT0=
EXTT1=
EXTT2=
EXTT3=
EXTT4=
EXTT5=
EXTT6=
EXTT7=
EXTT8=
EXTT9=
EXTT10=
EXTT11=
EXTT12=
EXTT13=
EXTT14=
EXTT15=
EXTT16=
EXTT17=
EXTT18=
PLAYORDER=
